<svg xmlns="http://www.w3.org/2000/svg" xmlns:xlink="http://www.w3.org/1999/xlink" width="2000" zoomAndPan="magnify" viewBox="0 0 1500 1499.999933" height="2000" preserveAspectRatio="xMidYMid meet" version="1.0"><defs><g/><clipPath id="0bb5802357"><path d="M 635.496094 0.378906 L 1342 0.378906 L 1342 521.855469 L 635.496094 521.855469 Z M 635.496094 0.378906 " clip-rule="nonzero"/></clipPath><clipPath id="aea537c314"><path d="M 705.996094 0.378906 L 1270.941406 0.378906 C 1289.640625 0.378906 1307.574219 7.804688 1320.792969 21.027344 C 1334.015625 34.25 1341.441406 52.179688 1341.441406 70.878906 L 1341.441406 451.355469 C 1341.441406 470.054688 1334.015625 487.988281 1320.792969 501.207031 C 1307.574219 514.429688 1289.640625 521.855469 1270.941406 521.855469 L 705.996094 521.855469 C 687.296875 521.855469 669.367188 514.429688 656.144531 501.207031 C 642.921875 487.988281 635.496094 470.054688 635.496094 451.355469 L 635.496094 70.878906 C 635.496094 52.179688 642.921875 34.25 656.144531 21.027344 C 669.367188 7.804688 687.296875 0.378906 705.996094 0.378906 Z M 705.996094 0.378906 " clip-rule="nonzero"/></clipPath><clipPath id="b79b4fce57"><path d="M 0.496094 0.378906 L 706.558594 0.378906 L 706.558594 521.855469 L 0.496094 521.855469 Z M 0.496094 0.378906 " clip-rule="nonzero"/></clipPath><clipPath id="d431fd8754"><path d="M 70.996094 0.378906 L 635.941406 0.378906 C 654.640625 0.378906 672.574219 7.804688 685.792969 21.027344 C 699.015625 34.25 706.441406 52.179688 706.441406 70.878906 L 706.441406 451.355469 C 706.441406 470.054688 699.015625 487.988281 685.792969 501.207031 C 672.574219 514.429688 654.640625 521.855469 635.941406 521.855469 L 70.996094 521.855469 C 52.296875 521.855469 34.367188 514.429688 21.144531 501.207031 C 7.921875 487.988281 0.496094 470.054688 0.496094 451.355469 L 0.496094 70.878906 C 0.496094 52.179688 7.921875 34.25 21.144531 21.027344 C 34.367188 7.804688 52.296875 0.378906 70.996094 0.378906 Z M 70.996094 0.378906 " clip-rule="nonzero"/></clipPath><clipPath id="2ea526035c"><rect x="0" width="707" y="0" height="522"/></clipPath><clipPath id="15b8a1a434"><rect x="0" width="690" y="0" height="419"/></clipPath><clipPath id="44d8a459f5"><path d="M 0.441406 105 L 636 105 L 636 436 L 0.441406 436 Z M 0.441406 105 " clip-rule="nonzero"/></clipPath><clipPath id="090af9a5de"><rect x="0" width="636" y="0" height="331"/></clipPath><clipPath id="10b1395d71"><rect x="0" width="1343" y="0" height="522"/></clipPath></defs><rect x="-150" width="1800" fill="#ffffff" y="-149.999993" height="1799.99992" fill-opacity="1"/><rect x="-150" width="1800" fill="#ffffff" y="-149.999993" height="1799.99992" fill-opacity="1"/><g transform="matrix(1, 0, 0, 1, 79, 471)"><g clip-path="url(#10b1395d71)"><g clip-path="url(#0bb5802357)"><g clip-path="url(#aea537c314)"><g transform="matrix(1, 0, 0, 1, 635, 0.000000000000113687)"><g clip-path="url(#2ea526035c)"><g clip-path="url(#b79b4fce57)"><g clip-path="url(#d431fd8754)"><path fill="#ff1493" d="M 0.496094 0.378906 L 707.34375 0.378906 L 707.34375 521.855469 L 0.496094 521.855469 Z M 0.496094 0.378906 " fill-opacity="1" fill-rule="nonzero"/></g></g></g></g></g></g><g transform="matrix(1, 0, 0, 1, 644, 52)"><g clip-path="url(#15b8a1a434)"><g fill="#ffffff" fill-opacity="1"><g transform="translate(0.748272, 327.485994)"><g><path d="M 169.734375 -136.5 L 169.734375 -218.828125 L 212.828125 -218.828125 L 212.828125 0 L 169.734375 0 L 169.734375 -99.6875 L 71.6875 -99.6875 L 71.6875 0 L 28.4375 0 L 28.4375 -218.828125 L 71.6875 -218.828125 L 71.6875 -136.5 Z M 169.734375 -136.5 "/></g></g><g transform="translate(242.167225, 327.485994)"><g><path d="M 116 3.140625 C 85.863281 3.140625 63.507812 -4.015625 48.9375 -18.328125 C 34.375 -32.648438 27.09375 -53.878906 27.09375 -82.015625 L 27.09375 -218.828125 L 69.453125 -218.828125 L 69.453125 -82.328125 C 69.453125 -66.359375 73.289062 -54.378906 80.96875 -46.390625 C 88.65625 -38.410156 100.332031 -34.421875 116 -34.421875 C 147.03125 -34.421875 162.546875 -50.390625 162.546875 -82.328125 L 162.546875 -218.828125 L 204.90625 -218.828125 L 204.90625 -82.015625 C 204.90625 -53.878906 197.617188 -32.648438 183.046875 -18.328125 C 168.484375 -4.015625 146.132812 3.140625 116 3.140625 Z M 116 3.140625 "/></g></g><g transform="translate(474.156918, 327.485994)"><g><path d="M 28.4375 0 L 28.4375 -218.828125 L 121.828125 -218.828125 C 135.304688 -218.828125 146.707031 -216.703125 156.03125 -212.453125 C 165.363281 -208.210938 172.421875 -202.175781 177.203125 -194.34375 C 181.992188 -186.519531 184.390625 -177.269531 184.390625 -166.59375 C 184.390625 -156.90625 182.046875 -148.367188 177.359375 -140.984375 C 172.671875 -133.609375 165.9375 -127.675781 157.15625 -123.1875 L 157.15625 -120.03125 C 170.925781 -116.445312 181.550781 -109.914062 189.03125 -100.4375 C 196.519531 -90.957031 200.265625 -79.332031 200.265625 -65.5625 C 200.265625 -44.601562 193.953125 -28.4375 181.328125 -17.0625 C 168.703125 -5.6875 149.96875 0 125.125 0 Z M 112.859375 -131.5625 C 133.015625 -131.5625 143.09375 -140.640625 143.09375 -158.796875 C 143.09375 -168.078125 140.597656 -174.988281 135.609375 -179.53125 C 130.617188 -184.070312 123.035156 -186.34375 112.859375 -186.34375 L 71.6875 -186.34375 L 71.6875 -131.5625 Z M 120.78125 -34.28125 C 144.632812 -34.28125 156.5625 -45.101562 156.5625 -66.75 C 156.5625 -88.507812 144.632812 -99.390625 120.78125 -99.390625 L 71.6875 -99.390625 L 71.6875 -34.28125 Z M 120.78125 -34.28125 "/></g></g></g></g></g><g clip-path="url(#44d8a459f5)"><g transform="matrix(1, 0, 0, 1, 0.000000000000014211, 105)"><g clip-path="url(#090af9a5de)"><g fill="#ff1493" fill-opacity="1"><g transform="translate(0.55698, 259.441556)"><g><path d="M 76.390625 2.46875 C 64.441406 2.46875 53.8125 1 44.5 -1.9375 C 35.1875 -4.882812 27.425781 -8.753906 21.21875 -13.546875 C 15.007812 -18.347656 10.253906 -23.617188 6.953125 -29.359375 L 25.703125 -52.21875 L 28.640625 -52.21875 C 33.828125 -44.519531 40.410156 -38.390625 48.390625 -33.828125 C 56.367188 -29.273438 65.703125 -27 76.390625 -27 C 85.503906 -27 92.378906 -28.921875 97.015625 -32.765625 C 101.660156 -36.617188 103.984375 -41.925781 103.984375 -48.6875 C 103.984375 -52.769531 103.234375 -56.1875 101.734375 -58.9375 C 100.242188 -61.695312 97.769531 -64.054688 94.3125 -66.015625 C 90.851562 -67.984375 86.175781 -69.675781 80.28125 -71.09375 L 58.125 -76.15625 C 42.632812 -79.695312 31.097656 -85.570312 23.515625 -93.78125 C 15.929688 -101.988281 12.140625 -112.65625 12.140625 -125.78125 C 12.140625 -135.53125 14.578125 -144.097656 19.453125 -151.484375 C 24.328125 -158.867188 31.421875 -164.601562 40.734375 -168.6875 C 50.046875 -172.78125 61.1875 -174.828125 74.15625 -174.828125 C 87.4375 -174.828125 98.8125 -173.078125 108.28125 -169.578125 C 117.75 -166.085938 125.742188 -160.722656 132.265625 -153.484375 L 115.40625 -130.390625 L 112.46875 -130.390625 C 107.59375 -135.492188 102.007812 -139.320312 95.71875 -141.875 C 89.4375 -144.4375 82.25 -145.71875 74.15625 -145.71875 C 64.800781 -145.71875 57.6875 -144.066406 52.8125 -140.765625 C 47.9375 -137.460938 45.5 -132.898438 45.5 -127.078125 C 45.5 -121.660156 47.207031 -117.335938 50.625 -114.109375 C 54.050781 -110.890625 59.96875 -108.378906 68.375 -106.578125 L 91.015625 -101.859375 C 107.753906 -98.316406 119.894531 -92.320312 127.4375 -83.875 C 134.976562 -75.425781 138.75 -64.40625 138.75 -50.8125 C 138.75 -40.039062 136.429688 -30.664062 131.796875 -22.6875 C 127.160156 -14.71875 120.164062 -8.53125 110.8125 -4.125 C 101.457031 0.269531 89.984375 2.46875 76.390625 2.46875 Z M 76.390625 2.46875 "/></g></g><g transform="translate(148.621434, 259.441556)"><g><path d="M 165.40625 0 L 129.5625 0 L 116.59375 -39.734375 L 50.578125 -39.734375 L 37.609375 0 L 2.59375 0 L 62.125 -172.359375 L 105.859375 -172.359375 Z M 81.9375 -136.390625 L 59.765625 -68.375 L 107.15625 -68.375 L 84.875 -136.390625 Z M 81.9375 -136.390625 "/></g></g><g transform="translate(316.608573, 259.441556)"><g><path d="M 56.46875 -172.359375 L 56.46875 -28.53125 L 133.921875 -28.53125 L 133.921875 0 L 22.40625 0 L 22.40625 -172.359375 Z M 56.46875 -172.359375 "/></g></g></g><g fill="#ff1493" fill-opacity="1"><g transform="translate(452.766576, 259.441556)"><g><path d="M 91.359375 2.46875 C 67.628906 2.46875 50.023438 -3.164062 38.546875 -14.4375 C 27.078125 -25.71875 21.34375 -42.441406 21.34375 -64.609375 L 21.34375 -172.359375 L 54.703125 -172.359375 L 54.703125 -64.84375 C 54.703125 -52.269531 57.726562 -42.835938 63.78125 -36.546875 C 69.832031 -30.253906 79.023438 -27.109375 91.359375 -27.109375 C 115.804688 -27.109375 128.03125 -39.6875 128.03125 -64.84375 L 128.03125 -172.359375 L 161.390625 -172.359375 L 161.390625 -64.609375 C 161.390625 -42.441406 155.648438 -25.71875 144.171875 -14.4375 C 132.703125 -3.164062 115.097656 2.46875 91.359375 2.46875 Z M 91.359375 2.46875 "/></g></g></g></g></g></g></g></g></svg>